<?xml version="1.0" encoding="UTF-8"?>
<svg xmlns="http://www.w3.org/2000/svg" xmlns:xlink="http://www.w3.org/1999/xlink" >
	<symbol id="cloudy"  viewBox="0 0 48 48">

		<defs>
			<clipPath>
				<rect id="32icon-grid" width="48.000000" height="48.000000" transform="translate(0.000000 -0.999817)" fill="white" fill-opacity="0"/>
			</clipPath>
			<clipPath id="clip23_2336">
				<rect id="cloudy" width="48.000000" height="48.000000" transform="translate(0.000000 -0.999817)" fill="white" fill-opacity="0"/>
			</clipPath>
		</defs>
		<g clip-path="url(#clip23_2336)">
			<path id="outline" d="M17.29 11.08C17.82 11.02 18.36 11 18.91 11C26.2 11 32.34 16.08 34.23 23.02C34.38 23.01 34.53 23 34.68 23C34.62 23 34.56 23 34.49 23L34.44 23L34.44 23L36.74 23L36.84 23L36.84 22.99C39.69 22.95 41.99 20.61 41.99 17.75C41.99 14.85 39.64 12.5 36.74 12.5C35.77 12.5 34.86 12.76 34.08 13.22C34.08 12.38 33.95 11.58 33.71 10.81C32.55 7.43 29.33 5 25.55 5C21.67 5 18.38 7.56 17.29 11.08ZM40.76 24.95C43.32 26.86 45 29.97 45 33.5C45 39.29 40.46 44 34.87 44C34.74 44 34.62 43.99 34.5 43.99L34.5 44L19.15 44L19.15 43.99C19.07 43.99 18.99 44 18.91 44C10.12 44 3 36.61 3 27.5C3 20.14 7.64 13.9 14.06 11.78C14.95 6.23 19.75 2 25.55 2C30.52 2 34.76 5.11 36.43 9.5C36.53 9.5 36.64 9.5 36.74 9.5C41.3 9.5 44.99 13.19 44.99 17.75C44.99 20.84 43.29 23.54 40.76 24.95ZM34.5 41L19.15 41L18.97 41L18.97 41L18.91 41C11.88 41 6 35.05 6 27.5C6 19.94 11.88 14 18.91 14C24.87 14 30.01 18.27 31.43 24.18L31.43 24.18C31.64 25 31.76 25.85 31.81 26.72C32.75 26.25 33.79 26 34.87 26C38.7 26 42 29.25 42 33.5C42 37.71 38.75 40.95 34.95 40.99L34.95 41L34.5 41Z" fill="#FFFFFF" fill-opacity="1.000000" fill-rule="evenodd"/>
		</g>
	</symbol>

	<symbol id="few-clouds" viewBox="0 0 48 48">
		<defs>
			<clipPath>
				<rect id="32icon-grid" width="48.000000" height="48.000000" transform="translate(0.000000 -0.999802)" fill="white" fill-opacity="0"/>
			</clipPath>
			<clipPath id="clip23_2338">
				<rect id="few-clouds" width="48.000000" height="48.000000" transform="translate(0.000000 -0.999802)" fill="white" fill-opacity="0"/>
			</clipPath>
		</defs>
		<g clip-path="url(#clip23_2338)">
			<path id="outline" d="M22.5 6.5L22.5 2L25.5 2L25.5 6.5L22.5 6.5ZM34.29 31.73C35.35 33.03 36 34.69 36 36.5C36 40.64 32.64 44 28.5 44L28.44 43.99L17.3 43.99L17.3 43.99L17.25 43.99C11.03 43.99 6 38.96 6 32.74C6 29.06 7.77 25.78 10.51 23.73C10.5 23.49 10.5 23.24 10.5 23C10.5 15.54 16.54 9.5 24 9.5C31.45 9.5 37.5 15.54 37.5 23C37.5 26.33 36.29 29.38 34.29 31.73ZM31.96 29.84C30.92 29.3 29.74 29 28.5 29C27.23 29 26.03 29.31 24.98 29.87C25.32 30.76 25.5 31.73 25.5 32.75C25.5 32.88 25.5 33.01 25.49 33.14C26.29 32.43 27.34 32 28.5 32C30.98 32 33 34.01 33 36.5C33 38.98 30.98 41 28.5 41L28.5 40.99L28.45 40.99L28.39 40.99L17.37 40.99C17.33 40.99 17.29 40.99 17.25 40.99C12.69 40.99 9 37.3 9 32.74C9 28.19 12.69 24.49 17.25 24.49C20.79 24.49 23.81 26.73 24.98 29.87C25.85 29.4 26.83 29.11 27.86 29.02C26.33 24.64 22.15 21.49 17.25 21.49C15.94 21.49 14.69 21.72 13.53 22.12C13.97 16.73 18.49 12.5 24 12.5C29.79 12.5 34.5 17.2 34.5 23C34.5 25.61 33.54 28 31.96 29.84ZM45 21.5L40.5 21.5L40.5 24.5L45 24.5L45 21.5ZM37.53 13.45L41.43 11.2L42.93 13.79L39.03 16.04L37.53 13.45ZM33.2 4.06L30.95 7.96L33.54 9.46L35.79 5.56L33.2 4.06ZM14.45 9.46L12.2 5.56L14.79 4.06L17.04 7.96L14.45 9.46ZM5.06 13.79L8.96 16.04L10.46 13.45L6.56 11.2L5.06 13.79ZM3 21.5L7.5 21.5L7.5 24.5L3 24.5L3 21.5ZM37.53 32.54L41.43 34.79L42.93 32.2L39.03 29.95L37.53 32.54Z" fill="#FFFFFF" fill-opacity="1.000000" fill-rule="evenodd"/>
		</g>
	</symbol>

	<symbol id="few-clouds-n" viewBox="0 0 48 43">
		<defs/>
		<path id="path" d="M43.84 28.15C45.32 27.2 46.61 26.03 47.7 24.64C48.02 24.24 48.05 23.81 47.77 23.37C47.5 22.93 47.11 22.76 46.61 22.88C44.25 23.33 41.95 23.13 39.69 22.3C39.13 20.88 38.27 19.68 37.09 18.71C35.92 17.74 34.58 17.13 33.09 16.86C33.04 16.79 32.99 16.7 32.94 16.62C31.56 14.28 30.97 11.76 31.14 9.04C31.32 6.32 32.24 3.9 33.91 1.77C34.22 1.36 34.24 0.95 33.98 0.52C33.72 0.1 33.36 -0.07 32.89 0.01C31.21 0.33 29.64 0.92 28.16 1.79C26.69 2.65 25.39 3.73 24.28 5.03C23.16 6.34 22.29 7.79 21.65 9.39C21.02 10.99 20.66 12.65 20.58 14.38C19.25 13.73 17.84 13.4 16.36 13.4C15.06 13.4 13.8 13.66 12.6 14.16C11.4 14.67 10.34 15.38 9.42 16.32C8.5 17.25 7.79 18.33 7.29 19.54C6.79 20.76 6.54 22.03 6.54 23.35C6.54 23.46 6.54 23.56 6.54 23.67C4.62 24.2 3.05 25.27 1.83 26.87C0.62 28.47 0.01 30.28 0 32.3C0.03 33.63 0.32 34.9 0.85 36.12C1.38 37.33 2.11 38.4 3.06 39.32C4 40.24 5.09 40.94 6.3 41.43C7.52 41.92 8.79 42.16 10.1 42.14L41.45 42.14C42.32 42.14 43.15 41.97 43.95 41.64C44.76 41.3 45.46 40.82 46.08 40.2C46.69 39.58 47.16 38.86 47.5 38.05C47.83 37.23 48 36.39 48 35.51C48.05 33.01 47.17 30.9 45.37 29.2C44.9 28.78 44.39 28.43 43.84 28.15ZM44.01 25.32C43.49 25.73 42.94 26.1 42.37 26.42C41.9 26.7 41.42 26.95 40.93 27.16C40.69 27.16 40.46 27.09 40.22 27.08C40.36 26.32 40.41 25.56 40.36 24.8C41.56 25.12 42.77 25.3 44.01 25.32ZM29.13 3.77C29.59 3.49 30.06 3.24 30.54 3.03C29.46 5.19 28.92 7.48 28.92 9.91C28.92 12.33 29.46 14.62 30.54 16.79C28.49 17.03 26.74 17.9 25.3 19.41C24.7 18 23.83 16.81 22.69 15.81C22.57 13.35 23.1 11.04 24.25 8.88C25.41 6.72 27.04 5.01 29.13 3.77ZM41.45 39.93L10.1 39.93C9.07 39.94 8.07 39.76 7.12 39.37C6.16 38.99 5.31 38.43 4.57 37.71C3.83 36.99 3.25 36.15 2.83 35.19C2.42 34.24 2.2 33.24 2.18 32.19C2.18 29.78 3.69 26.6 7.97 25.56C8.61 25.41 8.88 25 8.8 24.35C8.75 24.02 8.73 23.68 8.72 23.35C8.72 21.88 9.11 20.52 9.87 19.28C10.64 18.03 11.67 17.08 12.97 16.43C14.26 15.78 15.63 15.52 17.08 15.66C18.52 15.79 19.82 16.31 20.97 17.19C22.55 18.42 23.52 20.02 23.86 22C23.95 22.51 24.25 22.81 24.76 22.9C25.24 22.96 25.61 22.78 25.85 22.35C26.5 21.18 27.42 20.29 28.6 19.69C29.78 19.09 31.02 18.87 32.34 19.03C33.65 19.19 34.81 19.71 35.81 20.58C36.81 21.45 37.49 22.54 37.85 23.83C38.22 25.2 38.16 26.54 37.65 27.87C37.49 28.27 37.55 28.64 37.82 28.98C38.06 29.3 38.39 29.44 38.79 29.4C40.68 29.12 42.35 29.62 43.81 30.88C45.16 32.12 45.83 33.66 45.81 35.51C45.81 36.73 45.39 37.77 44.54 38.63C43.68 39.5 42.65 39.93 41.45 39.93Z" fill="#FFFFFF" fill-opacity="1.000000" fill-rule="nonzero"/>
	</symbol>

	<symbol id="fog" viewBox="0 0 48 48">

		<defs>
			<clipPath>
				<rect id="32icon-grid" width="48.000000" height="48.000000" transform="translate(0.000000 -0.999832)" fill="white" fill-opacity="0"/>
			</clipPath>
			<clipPath id="clip23_2340">
				<rect id="fog" width="48.000000" height="48.000000" transform="translate(0.000000 -0.999832)" fill="white" fill-opacity="0"/>
			</clipPath>
		</defs>
		<g clip-path="url(#clip23_2340)">
			<path id="outline" d="M41.99 24.66C41.99 28.07 39.78 30.93 36.75 31.89L36.75 35C41.46 33.96 44.99 29.72 44.99 24.66C44.99 18.81 40.29 14.08 34.49 14.08C34.2 14.08 33.9 14.09 33.61 14.11C31.46 7.93 25.62 3.5 18.75 3.5C10.05 3.5 3 10.6 3 19.37C3 25.99 7.02 31.67 12.75 34.05L12.75 30.73C8.73 28.56 6 24.3 6 19.37C6 12.24 11.73 6.5 18.75 6.5C24.18 6.5 28.84 9.94 30.67 14.8L30.68 14.8C31.03 15.73 31.27 16.72 31.4 17.75C32.34 17.32 33.39 17.08 34.49 17.08C38.62 17.08 41.99 20.45 41.99 24.66ZM34.5 26L19.5 26L19.5 29L34.5 29L34.5 26ZM31.5 32L16.5 32L16.5 35L31.5 35L31.5 32ZM19.5 38L34.5 38L34.5 41L19.5 41L19.5 38Z" fill="#FFFFFF" fill-opacity="1.000000" fill-rule="evenodd"/>
		</g>
	</symbol>

	<symbol id="humidity" viewBox="0 0 48 48">

		<defs/>
		<rect width="48.000000" height="48.000000" fill="#FFFDFD" fill-opacity="0"/>
		<path id="outline" d="M38 32.72C38 38.36 32.37 44 24 44C15.62 44 10 38.36 10 32.72C10 26.88 13.8 19.6 18.26 13.26C20.28 10.4 22.31 7.91 23.9 6.06C25.51 8.05 27.61 10.75 29.69 13.81C31.87 16.99 33.99 20.47 35.55 23.87C37.14 27.32 38 30.36 38 32.72ZM6 32.72C6 21.85 16.26 8.74 21.28 2.97C22.92 1.09 24 0 24 0C24 0 25.03 1.14 26.6 3.05C31.59 9.13 42 22.97 42 32.72C42 41.16 33.94 48 24 48C14.05 48 6 41.16 6 32.72ZM14.99 26L19.29 26C18.49 27.84 18 29.6 18 31.09C18 33.38 20.23 36 24 36L24 40C18.47 40 14 36.01 14 31.09C14 29.44 14.38 27.71 14.99 26Z" fill="#FFFFFF" fill-opacity="1.000000" fill-rule="evenodd"/>
	</symbol>

	<symbol id="rain" viewBox="0 0 48 48">

		<defs>
			<clipPath>
				<rect id="32icon-grid" width="48.000000" height="48.000000" transform="translate(-0.999023 0.000000)" fill="white" fill-opacity="0"/>
			</clipPath>
			<clipPath id="clip23_2334">
				<rect id="rain" width="48.000000" height="48.000000" transform="translate(-0.999023 0.000000)" fill="white" fill-opacity="0"/>
			</clipPath>
		</defs>
		<g clip-path="url(#clip23_2334)">
			<path id="outline" d="M36.5 35.64C40.82 34.44 44 30.35 44 25.5C44 23.33 43.36 21.32 42.28 19.64C43.37 17.96 44 15.95 44 13.8C44 7.83 39.16 3 33.19 3C30.57 3 28.17 3.93 26.3 5.48C23.87 3.9 20.99 3 17.91 3C9.12 3 2 10.38 2 19.5C2 26.04 5.67 31.69 11 34.36L11 30.9C7.41 28.52 5 24.34 5 19.5C5 11.94 10.88 6 17.91 6C23.87 6 29.01 10.27 30.43 16.18L30.44 16.18C30.64 17 30.76 17.85 30.81 18.72C31.75 18.25 32.79 18 33.87 18C37.7 18 41 21.25 41 25.5C41 28.72 39.09 31.38 36.5 32.47L36.5 35.64ZM28.73 7.4C30.84 9.43 32.42 12.06 33.23 15.02C33.44 15 33.65 15 33.87 15C36.25 15 38.45 15.85 40.18 17.28C40.7 16.23 41 15.05 41 13.8C41 9.49 37.5 6 33.19 6C31.53 6 29.99 6.51 28.73 7.4ZM14.54 31.38C14.23 32.11 14 32.89 14 33.61C14 34.93 15.01 36 16.25 36C17.49 36 18.5 34.93 18.5 33.61C18.5 32.94 18.25 32.14 17.91 31.38C17.24 29.87 16.25 28.5 16.25 28.5C16.25 28.5 15.2 29.82 14.54 31.38ZM21.5 33.61C21.5 32.89 21.73 32.11 22.04 31.38C22.7 29.82 23.75 28.5 23.75 28.5C23.75 28.5 24.74 29.87 25.41 31.38C25.75 32.14 26 32.94 26 33.61C26 34.93 24.99 36 23.75 36C22.51 36 21.5 34.93 21.5 33.61ZM18.85 38.88C18.54 39.61 18.31 40.39 18.31 41.11C18.31 42.43 19.32 43.5 20.56 43.5C21.8 43.5 22.81 42.43 22.81 41.11C22.81 40.44 22.56 39.64 22.22 38.88C21.55 37.37 20.56 36 20.56 36C20.56 36 19.51 37.32 18.85 38.88ZM29 33.61C29 32.89 29.23 32.11 29.54 31.38C30.2 29.82 31.25 28.5 31.25 28.5C31.25 28.5 32.24 29.87 32.91 31.38C33.25 32.14 33.5 32.94 33.5 33.61C33.5 34.93 32.49 36 31.25 36C30.01 36 29 34.93 29 33.61ZM26.37 38.88C26.06 39.61 25.83 40.39 25.83 41.11C25.83 42.43 26.84 43.5 28.08 43.5C29.33 43.5 30.33 42.43 30.33 41.11C30.33 40.44 30.08 39.64 29.74 38.88C29.08 37.37 28.08 36 28.08 36C28.08 36 27.04 37.32 26.37 38.88Z" fill="#FFFFFF" fill-opacity="1.000000" fill-rule="evenodd"/>
		</g>
	</symbol>

	<symbol id="search" viewBox="0 0 48 48">

		<defs>
			<clipPath>
				<rect id="search" width="48.000000" height="48.000000" fill="white" fill-opacity="0"/>
			</clipPath>
		</defs>
		<rect id="search" width="48.000000" height="48.000000" fill="#FFFFFF" fill-opacity="0"/>
		<g clip-path="url(#clip25_2778)">
			<path id="Vector" d="M33.23 20.3C33.23 16.75 31.96 13.7 29.43 11.17C26.9 8.64 23.86 7.38 20.3 7.38C16.75 7.38 13.7 8.64 11.17 11.17C8.64 13.7 7.38 16.75 7.38 20.3C7.38 23.86 8.64 26.9 11.17 29.43C13.7 31.96 16.75 33.23 20.3 33.23C23.86 33.23 26.9 31.96 29.43 29.43C31.96 26.9 33.23 23.86 33.23 20.3ZM48 44.3C48 45.3 47.63 46.17 46.9 46.9C46.17 47.63 45.3 48 44.3 48C43.26 48 42.4 47.63 41.71 46.9L31.81 37.03C28.37 39.42 24.53 40.61 20.3 40.61C17.55 40.61 14.92 40.08 12.41 39.01C9.9 37.94 7.74 36.5 5.92 34.68C4.11 32.87 2.66 30.7 1.6 28.19C0.53 25.68 0 23.05 0 20.3C0 17.55 0.53 14.92 1.6 12.41C2.66 9.9 4.11 7.74 5.92 5.92C7.74 4.11 9.9 2.66 12.41 1.6C14.92 0.53 17.55 0 20.3 0C23.05 0 25.68 0.53 28.19 1.6C30.7 2.66 32.87 4.11 34.68 5.92C36.5 7.74 37.94 9.9 39.01 12.41C40.08 14.92 40.61 17.55 40.61 20.3C40.61 24.53 39.42 28.37 37.03 31.81L46.93 41.71C47.64 42.42 48 43.28 48 44.3Z" fill="#FFFFFF" fill-opacity="1.000000" fill-rule="nonzero"/>
		</g>
	</symbol>

	<symbol id="snow" viewBox="0 0 48 48">

		<defs>
			<clipPath>
				<rect id="32icon-grid" width="48.000000" height="48.000000" transform="translate(0.000000 -0.999802)" fill="white" fill-opacity="0"/>
			</clipPath>
			<clipPath id="clip23_2341">
				<rect id="snow" width="48.000000" height="48.000000" transform="translate(0.000000 -0.999802)" fill="white" fill-opacity="0"/>
			</clipPath>
		</defs>
		<g clip-path="url(#clip23_2341)">
			<path id="outline" d="M20.99 23L13.32 27.48L7.24 24.69L5.99 27.44L10.14 29.34L7.86 30.68L9.34 33.28L11.62 31.95L11.18 36.54L14.15 36.82L14.8 30.09L22.48 25.6L22.48 34.62L17.05 38.57L18.81 40.99L22.48 38.33L22.48 41L25.48 41L25.48 38.33L29.14 40.99L30.91 38.57L25.48 34.62L25.48 25.62L33.17 30.12L33.82 36.85L36.79 36.57L36.35 31.98L38.63 33.31L40.11 30.71L37.83 29.37L41.98 27.47L40.73 24.72L34.65 27.51L26.93 23L34.63 18.49L40.75 21.3L42 18.56L37.81 16.63L40.12 15.28L38.63 12.68L36.37 14L36.81 9.45L33.84 9.18L33.19 15.86L25.48 20.37L25.48 11.4L30.94 7.43L29.18 5L25.48 7.69L25.48 5L22.48 5L22.48 7.64L18.84 5L17.08 7.43L22.48 11.35L22.48 20.39L14.83 15.92L14.17 9.14L11.2 9.42L11.65 14.06L9.34 12.71L7.85 15.31L10.12 16.64L6.01 18.53L7.26 21.27L13.3 18.5L20.99 23Z" fill="#FFFFFF" fill-opacity="1.000000" fill-rule="evenodd"/>
		</g>
	</symbol>

	<symbol id="clear" viewBox="0 0 48 48">

		<defs>
			<clipPath>
				<rect id="32icon-grid" width="48.000000" height="48.000000" transform="translate(0.000000 -0.999817)" fill="white" fill-opacity="0"/>
			</clipPath>
			<clipPath id="clip23_2335">
				<rect id="clear" width="48.000000" height="48.000000" transform="translate(0.000000 -0.999817)" fill="white" fill-opacity="0"/>
			</clipPath>
		</defs>
		<g clip-path="url(#clip23_2335)">
			<path id="outline" d="M22.5 6.5L22.5 2L25.5 2L25.5 6.5L22.5 6.5ZM30.95 7.96L33.2 4.06L35.79 5.56L33.54 9.46L30.95 7.96ZM24 33.5C29.79 33.5 34.5 28.79 34.5 23C34.5 17.2 29.79 12.5 24 12.5C18.2 12.5 13.5 17.2 13.5 23C13.5 28.79 18.2 33.5 24 33.5ZM24 36.5C31.45 36.5 37.5 30.45 37.5 23C37.5 15.54 31.45 9.5 24 9.5C16.54 9.5 10.5 15.54 10.5 23C10.5 30.45 16.54 36.5 24 36.5ZM40.5 21.5L45 21.5L45 24.5L40.5 24.5L40.5 21.5ZM41.43 11.2L37.53 13.45L39.03 16.04L42.93 13.79L41.43 11.2ZM12.2 5.56L14.45 9.46L17.04 7.96L14.79 4.06L12.2 5.56ZM8.96 16.04L5.06 13.79L6.56 11.2L10.46 13.45L8.96 16.04ZM22.5 39.5L22.5 44L25.5 44L25.5 39.5L22.5 39.5ZM7.5 21.5L3 21.5L3 24.5L7.5 24.5L7.5 21.5ZM5.06 32.2L8.96 29.95L10.46 32.54L6.56 34.79L5.06 32.2ZM14.45 36.53L12.2 40.43L14.79 41.93L17.04 38.03L14.45 36.53ZM33.2 41.93L30.95 38.03L33.54 36.53L35.79 40.43L33.2 41.93ZM37.53 32.54L41.43 34.79L42.93 32.2L39.03 29.95L37.53 32.54Z" fill="#FFFFFF" fill-opacity="1.000000" fill-rule="evenodd"/>
		</g>
	</symbol>

	<symbol id="clear-n" viewBox="0 0 48 48">
		<defs/>
		<rect id="Rectangle 919" width="48.000000" height="48.000000" fill="#FFFFFF" fill-opacity="0"/>
		<path id="nigth" d="M40.65 24.39C40.4 24.23 40.16 24.23 39.91 24.39C39.91 24.39 37.89 25.72 33.99 25.72C32.98 25.74 31.97 25.66 30.97 25.47C29.96 25.29 28.99 25 28.05 24.61C27.1 24.23 26.21 23.75 25.36 23.18C24.51 22.61 23.72 21.95 23 21.22C22.28 20.49 21.64 19.68 21.08 18.82C20.52 17.95 20.05 17.04 19.67 16.07C19.29 15.11 19.01 14.12 18.83 13.1C18.65 12.08 18.57 11.05 18.59 10.01C18.54 8.64 18.74 7.32 19.22 6.05C19.36 5.78 19.34 5.52 19.16 5.28C18.98 5.04 18.75 4.95 18.45 5.01C10.76 6.6 6 15.13 6 22.15C5.98 23.32 6.08 24.49 6.3 25.64C6.52 26.8 6.84 27.92 7.28 29.01C7.71 30.09 8.25 31.13 8.89 32.11C9.52 33.09 10.25 33.99 11.06 34.82C11.88 35.66 12.77 36.4 13.73 37.05C14.69 37.7 15.7 38.24 16.77 38.69C17.84 39.13 18.94 39.46 20.07 39.68C21.2 39.9 22.34 40.01 23.49 39.99C32.78 39.99 40.29 33.57 40.99 25.06C41.02 24.76 40.9 24.54 40.65 24.39ZM23.49 38.57C22.43 38.58 21.38 38.48 20.34 38.28C19.3 38.08 18.29 37.77 17.31 37.36C16.33 36.95 15.39 36.45 14.51 35.85C13.63 35.25 12.81 34.57 12.06 33.81C11.31 33.04 10.64 32.21 10.06 31.31C9.47 30.41 8.98 29.46 8.58 28.46C8.17 27.46 7.88 26.42 7.68 25.36C7.48 24.3 7.38 23.23 7.4 22.15C7.4 16.07 11.24 8.76 17.54 6.74C17.3 7.81 17.18 8.9 17.2 10.01C17.18 11.14 17.28 12.26 17.49 13.36C17.69 14.47 18.01 15.55 18.42 16.59C18.84 17.64 19.36 18.63 19.97 19.57C20.58 20.51 21.28 21.38 22.06 22.18C22.84 22.98 23.7 23.69 24.62 24.31C25.54 24.94 26.51 25.46 27.54 25.89C28.56 26.32 29.62 26.63 30.7 26.85C31.79 27.06 32.89 27.16 33.99 27.14C35.86 27.18 37.68 26.87 39.43 26.21C38.19 33.34 31.56 38.57 23.49 38.57Z" fill="#FFFFFF" fill-opacity="1.000000" fill-rule="nonzero"/>
	</symbol>

	<symbol id="sunrise" viewBox="0 0 48 48">

		<defs/>
		<path d="M33.7 23.98C34.23 25.26 34.49 26.59 34.5 27.98L34.5 29.5L37.5 29.5L37.5 27.98C37.49 27.52 37.47 27.08 37.43 26.63C37.38 26.2 37.32 25.77 37.23 25.35C37.06 24.48 36.81 23.64 36.47 22.83C36.3 22.42 36.11 22.01 35.9 21.62C35.69 21.24 35.47 20.87 35.23 20.51C34.73 19.76 34.17 19.08 33.54 18.45C33.22 18.12 32.88 17.82 32.52 17.53C32.19 17.26 31.84 17 31.48 16.76C31.12 16.52 30.75 16.3 30.37 16.09C29.98 15.88 29.57 15.69 29.16 15.52C28.75 15.35 28.33 15.2 27.9 15.07C27.49 14.95 27.07 14.84 26.64 14.76C26.22 14.67 25.79 14.61 25.36 14.56C24.91 14.52 24.45 14.5 24 14.5C23.54 14.5 23.08 14.52 22.63 14.56C22.2 14.61 21.77 14.67 21.35 14.76C20.92 14.84 20.5 14.95 20.09 15.07C19.66 15.2 19.24 15.35 18.83 15.52C18.42 15.69 18.01 15.88 17.62 16.09C17.24 16.3 16.87 16.52 16.51 16.76C16.14 17 15.8 17.26 15.46 17.53C15.11 17.82 14.77 18.13 14.45 18.45C14.13 18.77 13.82 19.11 13.53 19.46C13.26 19.8 13 20.14 12.76 20.51C12.52 20.87 12.3 21.24 12.09 21.62C11.88 22.01 11.69 22.42 11.52 22.83C11.35 23.24 11.2 23.66 11.07 24.09C10.95 24.5 10.84 24.92 10.76 25.35C10.67 25.77 10.61 26.2 10.56 26.63C10.52 27.08 10.5 27.52 10.5 27.98L10.5 29.5L13.5 29.5L13.5 28C13.5 27.3 13.56 26.62 13.69 25.95C13.83 25.28 14.03 24.62 14.29 23.98C14.56 23.33 14.88 22.73 15.26 22.16C15.64 21.59 16.08 21.06 16.57 20.57C17.06 20.08 17.59 19.64 18.16 19.26C18.73 18.88 19.33 18.56 19.98 18.29C20.62 18.03 21.28 17.83 21.95 17.69C22.62 17.56 23.3 17.5 24 17.5C24.69 17.5 25.37 17.56 26.04 17.69C26.71 17.83 27.37 18.03 28.01 18.29C28.66 18.56 29.26 18.88 29.83 19.26C30.4 19.64 30.93 20.08 31.42 20.57C31.91 21.06 32.35 21.59 32.73 22.16C33.11 22.73 33.43 23.33 33.7 23.98Z" fill="#FFFFFF" fill-opacity="1.000000" fill-rule="evenodd"/>
		<path id="Line 1 (Border)" d="M3 26.5L8 26.5L8 29.5L3 29.5L3 26.5Z" fill="#FFFFFF" fill-opacity="1.000000" fill-rule="evenodd"/>
		<path id="Line 1 (Border)" d="M40 26.5L45 26.5L45 29.5L40 29.5L40 26.5Z" fill="#FFFFFF" fill-opacity="1.000000" fill-rule="evenodd"/>
		<path id="Line 1 (Border)" d="M37.27 18.09L41.65 15.68L43.1 18.31L38.72 20.72L37.27 18.09Z" fill="#FFFFFF" fill-opacity="1.000000" fill-rule="evenodd"/>
		<path id="Line 1 (Border)" d="M6.72 15.68L11.1 18.09L9.65 20.72L5.27 18.31L6.72 15.68Z" fill="#FFFFFF" fill-opacity="1.000000" fill-rule="evenodd"/>
		<path id="Line 1 (Border)" d="M35.75 10.73L34.53 12.91L33.3 15.09L30.69 13.62L31.91 11.44L33.14 9.26L35.75 10.73Z" fill="#FFFFFF" fill-opacity="1.000000" fill-rule="evenodd"/>
		<path id="Line 1 (Border)" d="M15.13 15.09L12.69 10.73L15.3 9.26L17.75 13.62L15.13 15.09Z" fill="#FFFFFF" fill-opacity="1.000000" fill-rule="evenodd"/>
		<path id="Line 1 (Border)" d="M22.5 12L22.5 7L25.5 7L25.5 12L22.5 12Z" fill="#FFFFFF" fill-opacity="1.000000" fill-rule="evenodd"/>
		<path id="Vector 45 (Border)" d="M24.75 28.94L24.75 34L23.25 34L23.25 28.94L19.7 28.94L24 21.5L28.29 28.94L24.75 28.94Z" fill="#FFFFFF" fill-opacity="1.000000" fill-rule="evenodd"/>
		<rect id="Rectangle 917" width="48.000000" height="48.000000" fill="#FFFFFF" fill-opacity="0"/>
	</symbol>

	<symbol id="sunset" viewBox="0 0 48 48">

		<defs/>
		<path d="M34.7 25.98C35.23 27.26 35.49 28.59 35.5 29.98L35.5 31.5L38.5 31.5L38.5 29.98C38.49 29.52 38.47 29.08 38.43 28.63C38.38 28.2 38.32 27.77 38.23 27.35C38.06 26.48 37.81 25.64 37.47 24.83C37.3 24.42 37.11 24.01 36.9 23.62C36.69 23.24 36.47 22.87 36.23 22.51C35.73 21.76 35.17 21.08 34.54 20.45C34.22 20.12 33.88 19.82 33.52 19.53C33.19 19.26 32.84 19 32.48 18.76C32.12 18.52 31.75 18.3 31.37 18.09C30.98 17.88 30.57 17.69 30.16 17.52C29.75 17.35 29.33 17.2 28.9 17.07C28.49 16.95 28.07 16.84 27.64 16.76C27.22 16.67 26.79 16.61 26.36 16.56C25.91 16.52 25.45 16.5 25 16.5C24.54 16.5 24.08 16.52 23.63 16.56C23.2 16.61 22.77 16.67 22.35 16.76C21.92 16.84 21.5 16.95 21.09 17.07C20.66 17.2 20.24 17.35 19.83 17.52C19.42 17.69 19.01 17.88 18.62 18.09C18.24 18.3 17.87 18.52 17.51 18.76C17.14 19 16.8 19.26 16.46 19.53C16.11 19.82 15.77 20.13 15.45 20.45C15.13 20.77 14.82 21.11 14.53 21.46C14.26 21.8 14 22.14 13.76 22.51C13.52 22.87 13.3 23.24 13.09 23.62C12.88 24.01 12.69 24.42 12.52 24.83C12.35 25.24 12.2 25.66 12.07 26.09C11.95 26.5 11.84 26.92 11.76 27.35C11.67 27.77 11.61 28.2 11.56 28.63C11.52 29.08 11.5 29.52 11.5 29.98L11.5 31.5L14.5 31.5L14.5 30C14.5 29.3 14.56 28.62 14.69 27.95C14.83 27.28 15.03 26.62 15.29 25.98C15.56 25.33 15.88 24.73 16.26 24.16C16.64 23.59 17.08 23.06 17.57 22.57C18.06 22.08 18.59 21.64 19.16 21.26C19.73 20.88 20.33 20.56 20.98 20.29C21.62 20.03 22.28 19.83 22.95 19.69C23.62 19.56 24.3 19.5 25 19.5C25.69 19.5 26.37 19.56 27.04 19.69C27.71 19.83 28.37 20.03 29.01 20.29C29.66 20.56 30.26 20.88 30.83 21.26C31.4 21.64 31.93 22.08 32.42 22.57C32.91 23.06 33.35 23.59 33.73 24.16C34.11 24.73 34.43 25.33 34.7 25.98Z" fill="#FFFFFF" fill-opacity="1.000000" fill-rule="evenodd"/>
		<path id="Line 1 (Border)" d="M4 28.5L9 28.5L9 31.5L4 31.5L4 28.5Z" fill="#FFFFFF" fill-opacity="1.000000" fill-rule="evenodd"/>
		<path id="Line 1 (Border)" d="M41 28.5L46 28.5L46 31.5L41 31.5L41 28.5Z" fill="#FFFFFF" fill-opacity="1.000000" fill-rule="evenodd"/>
		<path id="Line 1 (Border)" d="M38.27 20.09L42.65 17.68L44.1 20.31L39.72 22.72L38.27 20.09Z" fill="#FFFFFF" fill-opacity="1.000000" fill-rule="evenodd"/>
		<path id="Line 1 (Border)" d="M7.72 17.68L12.1 20.09L10.65 22.72L6.27 20.31L7.72 17.68Z" fill="#FFFFFF" fill-opacity="1.000000" fill-rule="evenodd"/>
		<path id="Line 1 (Border)" d="M36.75 12.73L35.53 14.91L34.3 17.09L31.69 15.62L32.91 13.44L34.14 11.26L36.75 12.73Z" fill="#FFFFFF" fill-opacity="1.000000" fill-rule="evenodd"/>
		<path id="Line 1 (Border)" d="M16.13 17.09L13.69 12.73L16.3 11.26L18.75 15.62L16.13 17.09Z" fill="#FFFFFF" fill-opacity="1.000000" fill-rule="evenodd"/>
		<path id="Line 1 (Border)" d="M23.5 14L23.5 9L26.5 9L26.5 14L23.5 14Z" fill="#FFFFFF" fill-opacity="1.000000" fill-rule="evenodd"/>
		<path id="Vector 45 (Border)" d="M24.25 31.05L20.7 31.05L25 38.5L29.29 31.05L25.75 31.05L25.75 26L24.25 26L24.25 31.05Z" fill="#FFFFFF" fill-opacity="1.000000" fill-rule="evenodd"/>
		<rect id="Rectangle 917" width="48.000000" height="48.000000" fill="#FFFFFF" fill-opacity="0"/>
	</symbol>

	<symbol id="thunderstorm" viewBox="0 0 48 48">

		<defs>
			<clipPath>
				<rect id="32icon-grid" width="48.000000" height="48.000000" transform="translate(0.000000 -0.999817)" fill="white" fill-opacity="0"/>
			</clipPath>
			<clipPath id="clip23_2342">
				<rect id="thunderstorm" width="48.000000" height="48.000000" transform="translate(0.000000 -0.999817)" fill="white" fill-opacity="0"/>
			</clipPath>
		</defs>
		<g clip-path="url(#clip23_2342)">
			<path id="outline" d="M3 18.5C3 26.21 8.1 32.68 15 34.49L15 31.36C9.82 29.64 6 24.59 6 18.5C6 10.94 11.88 5 18.91 5C24.87 5 30.01 9.27 31.43 15.18L31.43 15.18C31.64 16 31.76 16.85 31.81 17.72C32.75 17.25 33.79 17 34.87 17C38.7 17 42 20.25 42 24.5C42 28.71 38.75 31.95 34.95 31.99L34.95 32L34.5 32L34.5 34.99C34.62 34.99 34.74 35 34.87 35C40.46 35 45 30.29 45 24.5C45 18.7 40.46 14 34.87 14C34.65 14 34.44 14 34.23 14.02C32.34 7.08 26.2 2 18.91 2C10.12 2 3 9.38 3 18.5ZM25.75 23.66L19.75 32.66L18.19 35L21 35L25.56 35L20.78 41.62L23.21 43.37L29.71 34.37L31.43 32L28.5 32L23.8 32L28.24 25.33L25.75 23.66Z" fill="#FFFFFF" fill-opacity="1.000000" fill-rule="evenodd"/>
		</g>
	</symbol>

	<symbol id="wind" viewBox="0 0 48 48">

		<defs/>
		<rect width="48.000000" height="48.000000" fill="#FFFFFF" fill-opacity="0"/>
		<path id="outline" d="M20 12.98L20 12.97L8.67 12.97L19.53 9.05L19.53 9.04C19.74 8.99 19.96 8.97 20.17 8.99C20.2 8.99 20.23 8.99 20.25 9L20.26 9C20.55 9.03 20.83 9.13 21.08 9.29L21.08 9.29C21.33 9.45 21.55 9.66 21.71 9.91L21.71 9.91C21.87 10.16 21.97 10.44 22 10.73L22 10.73C22.04 11.03 22.01 11.33 21.92 11.61L21.92 11.61C21.83 11.89 21.67 12.15 21.47 12.36L21.47 12.36C21.27 12.58 21.02 12.74 20.74 12.85L20.74 12.85C20.71 12.86 20.69 12.87 20.66 12.88C20.45 12.95 20.22 12.99 20 12.98ZM0 11.85L0 16.97L19.95 16.97C20.71 16.98 21.47 16.85 22.18 16.57L22.18 16.57C22.72 16.36 23.22 16.08 23.68 15.73C23.92 15.54 24.15 15.33 24.36 15.11L24.36 15.11C24.97 14.47 25.43 13.7 25.71 12.85L25.71 12.85C25.99 12.01 26.07 11.11 25.96 10.23L25.96 10.23C25.85 9.35 25.54 8.51 25.07 7.76L25.07 7.76C24.59 7.01 23.95 6.38 23.2 5.91L23.2 5.91C22.94 5.75 22.67 5.6 22.38 5.48C21.86 5.25 21.3 5.1 20.72 5.04L20.72 5.04C19.86 4.94 19 5.02 18.18 5.29L18.17 5.29L18.11 5.31L18.11 5.31L18.11 5.31L18.11 5.31L0 11.85ZM0 28.99L0 33.1L26.41 42.5L26.41 42.5C27.36 42.88 28.39 43.04 29.42 42.98C29.81 42.96 30.2 42.9 30.59 42.81C31.2 42.67 31.79 42.44 32.35 42.14C33.25 41.65 34.04 40.96 34.64 40.13C35.25 39.3 35.67 38.35 35.87 37.34C36.06 36.33 36.04 35.28 35.78 34.29C35.53 33.29 35.06 32.36 34.41 31.56C34.01 31.07 33.55 30.64 33.03 30.28C32.71 30.05 32.37 29.85 32.01 29.68C31.08 29.24 30.07 29 29.04 29L29.04 28.99L0 28.99ZM29.02 32.99L11.63 32.99L27.96 38.8L27.96 38.81C28.35 38.95 28.76 39.01 29.18 38.99C29.62 38.96 30.05 38.84 30.43 38.63C30.82 38.42 31.16 38.12 31.42 37.77C31.68 37.41 31.86 37 31.94 36.57C32.02 36.14 32.01 35.69 31.9 35.26C31.8 34.84 31.6 34.44 31.32 34.1C31.04 33.76 30.69 33.48 30.29 33.29C29.89 33.1 29.46 33 29.02 33L29.02 33L29.02 33L29.02 32.99ZM38.03 13.49L38.03 13.49L36.06 10.01L36.06 10.01L36.06 10C37.13 9.4 38.32 9.05 39.54 8.98C39.72 8.97 39.89 8.97 40.07 8.97C41.11 8.98 42.15 9.19 43.11 9.6C44.24 10.08 45.24 10.81 46.04 11.73C46.84 12.66 47.42 13.76 47.73 14.94C48.04 16.13 48.08 17.37 47.83 18.57C47.59 19.77 47.07 20.9 46.33 21.87C45.69 22.69 44.89 23.39 43.99 23.91C43.83 24 43.68 24.08 43.52 24.16C42.42 24.7 41.21 24.98 39.98 24.97L39.98 24.97L0 24.97L0 20.97L39.99 20.97L39.99 20.97C40.6 20.97 41.2 20.83 41.75 20.56C42.3 20.29 42.78 19.9 43.16 19.42C43.53 18.93 43.79 18.37 43.91 17.77C44.03 17.17 44.02 16.55 43.86 15.96C43.71 15.37 43.42 14.82 43.02 14.36C42.62 13.89 42.11 13.53 41.55 13.29C40.99 13.05 40.38 12.95 39.77 12.98C39.16 13.02 38.56 13.19 38.03 13.49Z" fill="#FFFFFF" fill-opacity="1.000000" fill-rule="evenodd"/>
	</symbol>

<symbol id="pressure" viewBox="0 0 48 48">
	<defs/>
		<path id="Oval 1 (Border)" d="M-0.01 24C-0.01 10.74 10.74 0 23.99 0C37.25 0 47.99 10.74 47.99 24C47.99 37.25 37.25 48 23.99 48C10.74 48 -0.01 37.25 -0.01 24ZM2.99 24C2.99 12.4 12.4 3 23.99 3C35.59 3 44.99 12.4 44.99 24C44.99 35.59 35.59 45 23.99 45C12.4 45 2.99 35.59 2.99 24Z" fill="#FFFFFF" fill-opacity="1.000000" fill-rule="evenodd"/>
		<path id="Oval 1 (Border)" d="M20 24C20 21.79 21.79 20 24 20C26.2 20 28 21.79 28 24C28 26.2 26.2 28 24 28C21.79 28 20 26.2 20 24ZM23 24C23 23.44 23.44 23 24 23C24.55 23 25 23.44 25 24C25 24.55 24.55 25 24 25C23.44 25 23 24.55 23 24Z" fill="#FFFFFF" fill-opacity="1.000000" fill-rule="evenodd"/>
		<path id="Line 2 (Border)" d="M25.5 6L25.5 11L22.5 11L22.5 6L25.5 6Z" fill="#FFFFFF" fill-opacity="1.000000" fill-rule="evenodd"/>
		<path id="Line 2 (Border)" d="M31.93 13.47L35.47 9.93L37.59 12.06L34.06 15.59L31.93 13.47Z" fill="#FFFFFF" fill-opacity="1.000000" fill-rule="evenodd"/>
		<path id="Line 2 (Border)" d="M24.57 20.38L27.97 15.44L30.44 17.15L27.03 22.08L24.57 20.38Z" fill="#FFFFFF" fill-opacity="1.000000" fill-rule="evenodd"/>
		<path id="Line 2 (Border)" d="M12.06 9.93L15.59 13.47L13.47 15.59L9.93 12.06L12.06 9.93Z" fill="#FFFFFF" fill-opacity="1.000000" fill-rule="evenodd"/>
		<path id="Line 2 (Border)" d="M6 22.5L11 22.5L11 25.5L6 25.5L6 22.5Z" fill="#FFFFFF" fill-opacity="1.000000" fill-rule="evenodd"/>
		<path id="Line 2 (Border)" d="M41.99 25.5L36.99 25.5L36.99 22.5L41.99 22.5L41.99 25.5Z" fill="#FFFFFF" fill-opacity="1.000000" fill-rule="evenodd"/>
</symbol>

<symbol id="geo" viewBox="0 0 50 50">
	<defs/>
	<rect id="Rectangle 918" width="50.000000" height="50.000000" fill="#FFFFFF" fill-opacity="0"/>
	<path id="Vector 46" d="M6 18.32C6 8.22 14.3 0 24.51 0C34.72 0 43.02 8.22 43.02 18.32C43.02 22.96 40.07 29.52 34.24 37.81C29.98 43.87 25.79 48.57 25.61 48.76L24.51 50L23.4 48.76C23.23 48.57 19.04 43.87 14.78 37.81C8.95 29.52 6 22.96 6 18.32ZM24.51 45.55C26.04 43.75 28.95 40.22 31.83 36.12C37.22 28.45 40.07 22.29 40.07 18.32C40.07 9.83 33.09 2.92 24.51 2.92C15.93 2.92 8.95 9.83 8.95 18.32C8.95 22.3 11.8 28.46 17.2 36.14C20.08 40.24 22.98 43.75 24.51 45.55ZM13.58 17.58C13.58 11.62 18.48 6.77 24.51 6.77C30.53 6.77 35.44 11.62 35.44 17.58C35.44 23.55 30.53 28.4 24.51 28.4C18.48 28.4 13.58 23.55 13.58 17.58ZM16.54 17.58C16.54 21.93 20.11 25.47 24.51 25.47C28.91 25.47 32.48 21.93 32.48 17.58C32.48 13.23 28.91 9.69 24.51 9.69C20.11 9.69 16.54 13.23 16.54 17.58Z" fill="#FFFFFF" fill-opacity="1.000000" fill-rule="evenodd"/>
</symbol>



</svg>





